<svg width="40" height="41" viewBox="0 0 40 41" fill="none" xmlns="http://www.w3.org/2000/svg">
<path fill-rule="evenodd" clip-rule="evenodd" d="M17.9867 8.61598L17.9817 8.62111L17.9709 8.42123L17.9642 8.28628C17.9342 7.72253 17.8876 6.86836 17.5492 6.19357C17.3552 5.78915 17.0386 5.46008 16.6467 5.25569C16.2176 5.03703 15.7276 4.98748 15.2042 5.06094C14.7401 5.12671 14.3292 5.31719 14.0042 5.64007C13.6859 5.95611 13.4959 6.35244 13.3926 6.75732C13.1901 7.54144 13.2759 8.47932 13.4842 9.38217C13.9067 11.2067 14.9326 13.3113 16.0867 14.7429C16.5309 15.2939 16.6667 16.1241 16.6667 16.482V18.3646L18.3334 18.7917V17.6684C19.0692 17.3883 19.5659 17.2601 20.0317 17.2499C20.4834 17.2414 20.9651 17.3421 21.6667 17.6394V18.7917L23.3334 18.3646V16.482C23.3334 16.1241 23.4701 15.2947 23.9134 14.7429C25.0592 13.3207 26.1367 11.2255 26.6134 9.40609C26.8484 8.50836 26.9659 7.57134 26.7892 6.7838C26.6984 6.37721 26.5201 5.97319 26.2042 5.64946C25.8817 5.31975 25.4684 5.12671 25.0042 5.06094C24.4809 4.98748 23.9901 5.03703 23.5617 5.25569C23.1284 5.47778 22.8426 5.82628 22.6584 6.19357C22.3201 6.86836 22.2742 7.72253 22.2442 8.28628L22.2367 8.42123L22.2259 8.62111L22.2209 8.61598C21.8234 8.25296 21.2967 8.12911 20.9417 8.07615C20.6987 8.04185 20.4537 8.02331 20.2084 8.02063H20.0001C19.7547 8.02331 19.5098 8.04271 19.2667 8.07701C18.9109 8.12996 18.3851 8.25382 17.9867 8.61684M19.0951 9.89296L19.1201 9.87673L19.1667 9.85453V13.6667H20.8334V9.79046C20.899 9.8047 20.9556 9.82064 21.0034 9.8383C21.0415 9.8523 21.0781 9.87034 21.1126 9.89211C21.4651 10.2141 21.8234 10.4858 22.1826 10.6096C22.3759 10.6754 22.6217 10.7172 22.8859 10.6506C23.1363 10.5873 23.3578 10.4377 23.5134 10.2269C23.7509 9.9109 23.8151 9.50773 23.8451 9.26515C23.8751 9.02598 23.8892 8.75094 23.9017 8.50067L23.9084 8.37938C23.9417 7.74217 23.9934 7.26896 24.1417 6.97428C24.2001 6.8564 24.2551 6.81028 24.3034 6.78636C24.3567 6.75817 24.4901 6.7129 24.7767 6.75305C24.9267 6.7744 24.9917 6.82309 25.0267 6.85811C25.0676 6.90082 25.1251 6.98709 25.1651 7.16561C25.2509 7.54998 25.2126 8.16498 25.0034 8.96363C24.5917 10.5379 23.6284 12.4145 22.6284 13.6556C22.0701 14.3474 21.8192 15.1973 21.7209 15.8363C21.1259 15.633 20.5726 15.5305 19.9976 15.5424C19.4309 15.5544 18.8776 15.6782 18.2851 15.8755C18.1909 15.2324 17.9409 14.362 17.3717 13.6547C16.3801 12.4247 15.4692 10.5567 15.1067 8.9884C14.9234 8.19403 14.9042 7.57903 15.0042 7.19294C15.0509 7.01186 15.1134 6.91705 15.1634 6.86751C15.2076 6.8248 15.2801 6.7744 15.4317 6.75305C15.7176 6.7129 15.8509 6.75817 15.9042 6.7855C15.9526 6.81028 16.0076 6.8564 16.0667 6.97428C16.2151 7.26896 16.2667 7.74217 16.3001 8.37938L16.3067 8.50067C16.3192 8.75094 16.3334 9.02598 16.3626 9.26515C16.3934 9.50773 16.4567 9.9109 16.6942 10.2269C16.8351 10.4149 17.0426 10.5806 17.3217 10.6506C17.5867 10.7172 17.8326 10.6754 18.0251 10.6088C18.3851 10.4858 18.7426 10.2141 19.0959 9.89125M21.6667 30.1649C20.9309 30.4451 20.4342 30.5732 19.9684 30.5834C19.5167 30.592 19.0351 30.4912 18.3334 30.1939V28.7572L16.6667 30.6074V32.4583C16.6667 33.3645 17.0179 34.2335 17.643 34.8743C18.2682 35.515 19.116 35.875 20.0001 35.875C20.8841 35.875 21.732 35.515 22.3571 34.8743C22.9822 34.2335 23.3334 33.3645 23.3334 32.4583V30.6074L21.6667 28.7572V30.1649ZM20.0001 34.1667C19.558 34.1667 19.1341 33.9867 18.8216 33.6663C18.509 33.3459 18.3334 32.9114 18.3334 32.4583V32.015C18.9084 32.2064 19.4451 32.3029 20.0026 32.2909C20.5542 32.279 21.0926 32.1619 21.6667 31.974V32.4583C21.6667 32.9114 21.4911 33.3459 21.1786 33.6663C20.866 33.9867 20.4421 34.1667 20.0001 34.1667Z" fill="#019F84"/>
<path fill-rule="evenodd" clip-rule="evenodd" d="M10.3017 9.78534C11.1275 10.3209 11.8075 11.2912 12.3117 12.5776C12.44 12.9048 12.565 13.2575 12.6958 13.6265C13.1283 14.842 13.6233 16.236 14.4933 17.4831C15.5717 19.0274 17.1967 20.2762 20 20.2762C22.8033 20.2762 24.4283 19.0274 25.5067 17.4831C26.3767 16.236 26.8717 14.842 27.3042 13.6265C27.435 13.2575 27.56 12.9048 27.6883 12.5776C28.1925 11.2912 28.8717 10.3209 29.6983 9.78534C30.5692 9.22159 31.555 9.1823 32.4317 9.69992C33.2583 10.1868 33.8933 11.1093 34.32 12.2804C34.7508 13.4677 35 14.9898 35 16.8117V25.5131C35 26.2392 34.8633 27.9184 34.0692 29.4491C33.2442 31.0404 31.7042 32.4583 29.0383 32.4583C27.7092 32.4583 26.7167 32.074 25.9117 31.4752C25.1908 30.9405 24.64 30.2435 24.1617 29.6387L24.065 29.5166C23.54 28.8555 23.075 28.2968 22.4675 27.8851C21.8842 27.4897 21.1283 27.2052 20 27.2052C18.8717 27.2052 18.1158 27.4897 17.5333 27.8851C16.925 28.296 16.46 28.8555 15.935 29.5166L15.8383 29.6396C15.36 30.2435 14.8092 30.9396 14.0883 31.4752C13.2833 32.0731 12.2908 32.4583 10.9617 32.4583C8.29583 32.4583 6.75583 31.0396 5.93083 29.4491C5.13667 27.9184 5 26.2383 5 25.514V16.8117C5 14.9898 5.24917 13.4668 5.68 12.2812C6.10667 11.1084 6.74167 10.1868 7.5675 9.69992C8.445 9.1823 9.43083 9.22159 10.3008 9.78534M10 15.375C10 15.6015 9.9122 15.8188 9.75592 15.979C9.59964 16.1392 9.38768 16.2292 9.16667 16.2292C8.94565 16.2292 8.73369 16.1392 8.57741 15.979C8.42113 15.8188 8.33333 15.6015 8.33333 15.375C8.33333 15.1485 8.42113 14.9312 8.57741 14.771C8.73369 14.6108 8.94565 14.5208 9.16667 14.5208C9.38768 14.5208 9.59964 14.6108 9.75592 14.771C9.9122 14.9312 10 15.1485 10 15.375ZM10.8333 19.6458C11.0543 19.6458 11.2663 19.5559 11.4226 19.3957C11.5789 19.2355 11.6667 19.0182 11.6667 18.7917C11.6667 18.5651 11.5789 18.3479 11.4226 18.1877C11.2663 18.0275 11.0543 17.9375 10.8333 17.9375C10.6123 17.9375 10.4004 18.0275 10.2441 18.1877C10.0878 18.3479 10 18.5651 10 18.7917C10 19.0182 10.0878 19.2355 10.2441 19.3957C10.4004 19.5559 10.6123 19.6458 10.8333 19.6458ZM10 22.2083C10 22.4349 9.9122 22.6521 9.75592 22.8123C9.59964 22.9725 9.38768 23.0625 9.16667 23.0625C8.94565 23.0625 8.73369 22.9725 8.57741 22.8123C8.42113 22.6521 8.33333 22.4349 8.33333 22.2083C8.33333 21.9818 8.42113 21.7645 8.57741 21.6044C8.73369 21.4442 8.94565 21.3542 9.16667 21.3542C9.38768 21.3542 9.59964 21.4442 9.75592 21.6044C9.9122 21.7645 10 21.9818 10 22.2083ZM13.3333 27.3333C13.5543 27.3333 13.7663 27.2434 13.9226 27.0832C14.0789 26.923 14.1667 26.7057 14.1667 26.4792C14.1667 26.2526 14.0789 26.0354 13.9226 25.8752C13.7663 25.715 13.5543 25.625 13.3333 25.625C13.1123 25.625 12.9004 25.715 12.7441 25.8752C12.5878 26.0354 12.5 26.2526 12.5 26.4792C12.5 26.7057 12.5878 26.923 12.7441 27.0832C12.9004 27.2434 13.1123 27.3333 13.3333 27.3333ZM10.8333 26.4792C10.8333 26.7057 10.7455 26.923 10.5893 27.0832C10.433 27.2434 10.221 27.3333 10 27.3333C9.77899 27.3333 9.56702 27.2434 9.41074 27.0832C9.25446 26.923 9.16667 26.7057 9.16667 26.4792C9.16667 26.2526 9.25446 26.0354 9.41074 25.8752C9.56702 25.715 9.77899 25.625 10 25.625C10.221 25.625 10.433 25.715 10.5893 25.8752C10.7455 26.0354 10.8333 26.2526 10.8333 26.4792ZM13.3333 23.9167C13.5543 23.9167 13.7663 23.8267 13.9226 23.6665C14.0789 23.5063 14.1667 23.289 14.1667 23.0625C14.1667 22.836 14.0789 22.6187 13.9226 22.4585C13.7663 22.2983 13.5543 22.2083 13.3333 22.2083C13.1123 22.2083 12.9004 22.2983 12.7441 22.4585C12.5878 22.6187 12.5 22.836 12.5 23.0625C12.5 23.289 12.5878 23.5063 12.7441 23.6665C12.9004 23.8267 13.1123 23.9167 13.3333 23.9167ZM17.5 23.9167C17.5 24.1432 17.4122 24.3605 17.2559 24.5207C17.0996 24.6809 16.8877 24.7708 16.6667 24.7708C16.4457 24.7708 16.2337 24.6809 16.0774 24.5207C15.9211 24.3605 15.8333 24.1432 15.8333 23.9167C15.8333 23.6901 15.9211 23.4729 16.0774 23.3127C16.2337 23.1525 16.4457 23.0625 16.6667 23.0625C16.8877 23.0625 17.0996 23.1525 17.2559 23.3127C17.4122 23.4729 17.5 23.6901 17.5 23.9167ZM30.8333 16.2292C30.6123 16.2292 30.4004 16.1392 30.2441 15.979C30.0878 15.8188 30 15.6015 30 15.375C30 15.1485 30.0878 14.9312 30.2441 14.771C30.4004 14.6108 30.6123 14.5208 30.8333 14.5208C31.0543 14.5208 31.2663 14.6108 31.4226 14.771C31.5789 14.9312 31.6667 15.1485 31.6667 15.375C31.6667 15.6015 31.5789 15.8188 31.4226 15.979C31.2663 16.1392 31.0543 16.2292 30.8333 16.2292ZM28.3333 18.7917C28.3333 19.0182 28.4211 19.2355 28.5774 19.3957C28.7337 19.5559 28.9457 19.6458 29.1667 19.6458C29.3877 19.6458 29.5996 19.5559 29.7559 19.3957C29.9122 19.2355 30 19.0182 30 18.7917C30 18.5651 29.9122 18.3479 29.7559 18.1877C29.5996 18.0275 29.3877 17.9375 29.1667 17.9375C28.9457 17.9375 28.7337 18.0275 28.5774 18.1877C28.4211 18.3479 28.3333 18.5651 28.3333 18.7917ZM30.8333 23.0625C30.6123 23.0625 30.4004 22.9725 30.2441 22.8123C30.0878 22.6521 30 22.4349 30 22.2083C30 21.9818 30.0878 21.7645 30.2441 21.6044C30.4004 21.4442 30.6123 21.3542 30.8333 21.3542C31.0543 21.3542 31.2663 21.4442 31.4226 21.6044C31.5789 21.7645 31.6667 21.9818 31.6667 22.2083C31.6667 22.4349 31.5789 22.6521 31.4226 22.8123C31.2663 22.9725 31.0543 23.0625 30.8333 23.0625ZM25.8333 26.4792C25.8333 26.7057 25.9211 26.923 26.0774 27.0832C26.2337 27.2434 26.4457 27.3333 26.6667 27.3333C26.8877 27.3333 27.0996 27.2434 27.2559 27.0832C27.4122 26.923 27.5 26.7057 27.5 26.4792C27.5 26.2526 27.4122 26.0354 27.2559 25.8752C27.0996 25.715 26.8877 25.625 26.6667 25.625C26.4457 25.625 26.2337 25.715 26.0774 25.8752C25.9211 26.0354 25.8333 26.2526 25.8333 26.4792ZM30 27.3333C29.779 27.3333 29.567 27.2434 29.4107 27.0832C29.2545 26.923 29.1667 26.7057 29.1667 26.4792C29.1667 26.2526 29.2545 26.0354 29.4107 25.8752C29.567 25.715 29.779 25.625 30 25.625C30.221 25.625 30.433 25.715 30.5893 25.8752C30.7455 26.0354 30.8333 26.2526 30.8333 26.4792C30.8333 26.7057 30.7455 26.923 30.5893 27.0832C30.433 27.2434 30.221 27.3333 30 27.3333ZM25.8333 23.0625C25.8333 23.289 25.9211 23.5063 26.0774 23.6665C26.2337 23.8267 26.4457 23.9167 26.6667 23.9167C26.8877 23.9167 27.0996 23.8267 27.2559 23.6665C27.4122 23.5063 27.5 23.289 27.5 23.0625C27.5 22.836 27.4122 22.6187 27.2559 22.4585C27.0996 22.2983 26.8877 22.2083 26.6667 22.2083C26.4457 22.2083 26.2337 22.2983 26.0774 22.4585C25.9211 22.6187 25.8333 22.836 25.8333 23.0625ZM23.3333 24.7708C23.1123 24.7708 22.9004 24.6809 22.7441 24.5207C22.5878 24.3605 22.5 24.1432 22.5 23.9167C22.5 23.6901 22.5878 23.4729 22.7441 23.3127C22.9004 23.1525 23.1123 23.0625 23.3333 23.0625C23.5543 23.0625 23.7663 23.1525 23.9226 23.3127C24.0789 23.4729 24.1667 23.6901 24.1667 23.9167C24.1667 24.1432 24.0789 24.3605 23.9226 24.5207C23.7663 24.6809 23.5543 24.7708 23.3333 24.7708ZM20.8333 23.9167C20.8333 24.1432 20.7455 24.3605 20.5893 24.5207C20.433 24.6809 20.221 24.7708 20 24.7708C19.779 24.7708 19.567 24.6809 19.4107 24.5207C19.2545 24.3605 19.1667 24.1432 19.1667 23.9167C19.1667 23.6901 19.2545 23.4729 19.4107 23.3127C19.567 23.1525 19.779 23.0625 20 23.0625C20.221 23.0625 20.433 23.1525 20.5893 23.3127C20.7455 23.4729 20.8333 23.6901 20.8333 23.9167Z" fill="#019F84"/>
</svg>
