<svg width="33" height="33" viewBox="0 0 33 33" fill="none" xmlns="http://www.w3.org/2000/svg">
<path d="M16.0579 29.673C14.212 29.673 12.4773 29.3225 10.8538 28.6215C9.23023 27.9205 7.81798 26.97 6.61701 25.7699C5.41604 24.5698 4.4655 23.1575 3.76538 21.5331C3.06526 19.9087 2.71476 18.174 2.71387 16.3289C2.71298 14.4839 3.06348 12.7492 3.76538 11.1248C4.46728 9.50033 5.41782 8.08808 6.61701 6.88801C7.8162 5.68793 9.22845 4.73739 10.8538 4.03638C12.4791 3.33537 14.2138 2.98486 16.0579 2.98486C17.9021 2.98486 19.6368 3.33537 21.2621 4.03638C22.8874 4.73739 24.2997 5.68793 25.4989 6.88801C26.6981 8.08808 27.6491 9.50033 28.3518 11.1248C29.0546 12.7492 29.4047 14.4839 29.402 16.3289C29.3993 18.174 29.0488 19.9087 28.3505 21.5331C27.6522 23.1575 26.7016 24.5698 25.4989 25.7699C24.2961 26.97 22.8839 27.9209 21.2621 28.6228C19.6404 29.3247 17.9057 29.6748 16.0579 29.673ZM16.0579 27.0042C19.0381 27.0042 21.5624 25.97 23.6307 23.9017C25.699 21.8334 26.7332 19.3091 26.7332 16.3289C26.7332 16.1733 26.7279 16.0118 26.7172 15.8445C26.7065 15.6773 26.7007 15.5385 26.6998 15.4282C26.5886 16.0732 26.2884 16.6069 25.7991 17.0295C25.3098 17.4521 24.7316 17.6633 24.0644 17.6633H21.3956C20.6616 17.6633 20.0336 17.4022 19.5114 16.88C18.9892 16.3579 18.7276 15.7293 18.7268 14.9945V13.6601H13.3891V10.9913C13.3891 10.2574 13.6507 9.62932 14.1738 9.10712C14.6968 8.58493 15.3249 8.32338 16.0579 8.32249H17.3924C17.3924 7.81097 17.5316 7.36083 17.81 6.97207C18.0885 6.58332 18.4274 6.26617 18.8268 6.02064C18.382 5.90944 17.9319 5.82048 17.4764 5.75376C17.0209 5.68704 16.5481 5.65368 16.0579 5.65368C13.0778 5.65368 10.5535 6.68784 8.48518 8.75618C6.41685 10.8245 5.38268 13.3488 5.38268 16.3289H12.0547C13.5226 16.3289 14.7791 16.8516 15.8244 17.8969C16.8697 18.9422 17.3924 20.1987 17.3924 21.6666V23.001H13.3891V26.6706C13.8339 26.7818 14.2734 26.8654 14.7075 26.9215C15.1416 26.9775 15.5918 27.0051 16.0579 27.0042Z" fill="#019F84"/>
</svg>
