<svg width="33" height="33" viewBox="0 0 33 33" fill="none" xmlns="http://www.w3.org/2000/svg">
<path d="M26.6665 28.2032C23.8865 28.2032 21.1399 27.5974 18.4266 26.3857C15.7133 25.1741 13.2446 23.4558 11.0206 21.2309C8.79661 19.006 7.07878 16.5373 5.86714 13.8249C4.6555 11.1125 4.04923 8.36587 4.04834 5.58497C4.04834 5.18464 4.18178 4.85104 4.44866 4.58416C4.71554 4.31728 5.04915 4.18384 5.44947 4.18384H10.8538C11.1652 4.18384 11.4432 4.2897 11.6878 4.50143C11.9325 4.71315 12.077 4.96313 12.1215 5.25136L12.9889 9.92179C13.0334 10.2776 13.0222 10.5779 12.9555 10.8225C12.8888 11.0672 12.7665 11.2784 12.5885 11.4564L9.35261 14.7257C9.79741 15.5485 10.3254 16.3434 10.9366 17.1102C11.5477 17.8771 12.2207 18.6168 12.9555 19.3294C13.645 20.0188 14.3678 20.6584 15.1239 21.2482C15.8801 21.8381 16.6807 22.3772 17.5259 22.8655L20.6617 19.7297C20.8619 19.5295 21.1234 19.3796 21.4463 19.28C21.7693 19.1804 22.086 19.1523 22.3964 19.1959L27.0002 20.13C27.3115 20.219 27.5673 20.3804 27.7674 20.6144C27.9676 20.8484 28.0677 21.1095 28.0677 21.3977V26.802C28.0677 27.2024 27.9342 27.536 27.6674 27.8029C27.4005 28.0697 27.0669 28.2032 26.6665 28.2032Z" fill="#019F84"/>
</svg>
